# xmcd
#
# Track frame offsets:
#	150
#	11728
#	23789
#	35509
#	45762
#	58187
#	68469
#	79125
#	91347
#	101186
#	119122
#	129316
#	141627
#	149022
#
# Disc length: 2158 seconds
#
# Revision: 0
# Processed by: cddbd v1.5.2PL0 Copyright (c) Steve Scherf et al.
# Submitted via: dBpowerAMP V4.0
#
DISCID=c9086c0e
DTITLE=Various Artist - Country - Kenny Rogers CD2
DYEAR=1900
DGENRE=Country
TTITLE0=Kenny Rogers - Me and Bobby McGee
TTITLE1=Wrylon Jennings - Don't think twice
TTITLE2=Donna Fargo - The happest girl in the whole USA
TTITLE3=Dave Dudley - Six days on the road
TTITLE4=Frankie Laine - High noon
TTITLE5=Johnny Tillotson - Send me the pillow you dream on
TTITLE6=Billie Joe Spears - I'm so lonesome I could cry
TTITLE7=Lynn Anderson - Stand by your man
TTITLE8=Mickey Gilley - Fraulein
TTITLE9=Juice Newton - Break it to me gently
TTITLE10=Faron Young - Live fast Love hard Die young
TTITLE11=Leon Payne - I love you because
TTITLE12=Merve Haggard - I'm a lonesome fugitive
TTITLE13=Hank Williams - Jambalaya
EXTD=
EXTT0=
EXTT1=
EXTT2=
EXTT3=
EXTT4=
EXTT5=
EXTT6=
EXTT7=
EXTT8=
EXTT9=
EXTT10=
EXTT11=
EXTT12=
EXTT13=
PLAYORDER=
